<svg data-v-423bf9ae="" xmlns="http://www.w3.org/2000/svg" viewBox="0 0 308.8036156936796 60" class="font"><!----><!----><!----><g data-v-423bf9ae="" id="486f1174-77e6-4134-a7ee-91514c38b83e" fill="white" transform="matrix(4.503479904740158,0,0,4.503479904740158,-5.043894596356637,-21.603057029098686)"><path d="M8.26 13.34L8.26 5.85C8.26 5.42 7.94 5.17 7.52 5.17C7.15 5.17 6.90 5.33 6.78 5.45C6.94 5.91 6.97 6.47 6.97 7.01L6.97 9.53L2.60 9.53L2.60 5.85C2.60 5.42 2.28 5.17 1.85 5.17C1.50 5.17 1.23 5.33 1.12 5.45C1.27 5.91 1.32 6.47 1.32 7.01L1.32 14.49C1.32 14.92 1.62 15.19 2.06 15.19C2.42 15.19 2.67 15.01 2.80 14.90C2.63 14.45 2.60 13.89 2.60 13.34L2.60 10.28L6.97 10.28L6.99 14.49C6.99 14.92 7.29 15.19 7.71 15.19C8.08 15.19 8.34 15.01 8.46 14.90C8.29 14.45 8.26 13.89 8.26 13.34ZM11.24 6.69C11.69 6.69 12.05 6.33 12.05 5.88C12.05 5.42 11.69 5.05 11.24 5.05C10.78 5.05 10.42 5.42 10.42 5.88C10.42 6.33 10.78 6.69 11.24 6.69ZM11.93 13.34L11.91 8.39C11.91 7.95 11.62 7.70 11.20 7.70C10.84 7.70 10.60 7.88 10.47 7.98C10.64 8.43 10.67 9.00 10.67 9.55L10.68 14.49C10.68 14.92 10.99 15.19 11.40 15.19C11.76 15.19 12.01 15.01 12.12 14.90C11.96 14.45 11.93 13.89 11.93 13.34ZM17.36 7.70C16.46 7.70 15.82 8.25 15.50 9.28C15.51 8.23 15.08 7.71 14.35 7.71C13.79 7.71 13.45 8.01 13.45 8.43C13.45 8.60 13.51 8.74 13.62 8.89C13.71 8.72 13.89 8.69 13.99 8.69C14.25 8.69 14.38 8.89 14.38 9.41L14.38 14.41C14.38 14.88 14.71 15.16 15.11 15.16C15.47 15.15 15.74 14.98 15.85 14.87C15.64 14.29 15.64 13.80 15.64 11.66C15.64 9.30 16.31 8.37 17.04 8.37C17.53 8.37 17.81 8.64 17.81 9.21C17.81 9.53 17.77 9.77 17.54 10.11C17.65 10.23 17.85 10.30 18.12 10.29C18.59 10.26 19.00 9.83 19.00 9.18C19.00 8.25 18.31 7.70 17.36 7.70ZM25.44 13.17C25.14 13.93 24.36 14.36 23.35 14.36C22.13 14.36 21.20 13.72 21.07 11.79C21.56 11.84 22.05 11.87 22.55 11.87C24.49 11.87 25.70 11.14 25.70 9.74C25.70 8.40 24.60 7.70 23.09 7.70C20.89 7.70 19.70 9.16 19.70 11.48C19.70 13.90 20.99 15.20 23.03 15.20C24.23 15.20 25.20 14.76 25.55 13.89C25.75 13.43 25.62 13.24 25.44 13.17ZM23.03 8.23C23.67 8.23 24.35 8.51 24.35 9.56C24.35 11.00 23.23 11.33 21.99 11.33C21.67 11.31 21.35 11.30 21.06 11.27C21.07 9.28 21.84 8.23 23.03 8.23ZM30.14 15.22C32.56 15.22 33.49 13.94 33.49 12.63C33.49 11.05 32.24 10.22 30.76 9.44C29.33 8.64 28.53 8.12 28.53 7.04C28.53 5.99 29.43 5.67 30.23 5.67C31.28 5.67 31.98 6.13 32.07 6.89C32.12 7.08 32.14 7.31 32.10 7.52C32.26 7.56 32.42 7.56 32.55 7.53C33.04 7.49 33.19 7.20 33.19 6.83C33.19 5.74 32.03 5.12 30.37 5.12C28.73 5.12 27.33 5.80 27.33 7.46C27.33 8.99 28.41 9.67 30.06 10.60C31.47 11.40 32.23 11.93 32.23 13.01C32.23 14.11 31.42 14.66 30.30 14.66C28.94 14.66 28.15 13.93 28.08 12.94C28.06 12.70 28.07 12.50 28.11 12.32C27.24 12.19 26.98 12.60 26.98 13.16C26.98 14.28 27.94 15.22 30.14 15.22ZM38.99 7.70C37.76 7.70 36.96 8.44 36.53 9.62C36.51 8.46 36.15 7.76 35.31 7.76C34.78 7.76 34.41 8.04 34.41 8.46C34.41 8.60 34.47 8.76 34.58 8.93C34.66 8.76 34.85 8.74 34.94 8.74C35.22 8.74 35.34 8.93 35.34 9.45L35.32 17.43C35.32 17.86 35.64 18.12 36.06 18.12C36.43 18.12 36.68 17.95 36.79 17.84C36.62 17.23 36.58 16.24 36.58 15.64L36.58 14.15C36.86 14.83 37.53 15.20 38.46 15.20C40.32 15.20 41.43 13.73 41.43 11.14C41.43 9.56 40.96 7.70 38.99 7.70ZM38.16 14.49C36.92 14.49 36.60 13.44 36.60 12.08C36.60 10.19 37.32 8.46 38.64 8.46C39.87 8.46 40.07 9.81 40.07 11.14C40.07 13.34 39.42 14.49 38.16 14.49ZM48.87 13.34L48.87 10.60C48.87 8.69 48.16 7.70 46.63 7.70C45.57 7.70 44.76 8.27 44.35 9.28L44.37 7.49C44.38 6.38 44.41 5.66 44.59 5.08C44.46 4.97 44.13 4.77 43.74 4.80C43.37 4.82 43.11 5.04 43.12 5.49L43.12 14.43C43.12 14.91 43.44 15.19 43.86 15.19C44.21 15.19 44.46 15.02 44.59 14.91C44.37 14.34 44.37 13.83 44.37 11.66C44.37 9.30 45.35 8.37 46.24 8.37C47.28 8.37 47.61 9.21 47.61 10.77L47.63 14.49C47.63 14.92 47.92 15.19 48.36 15.19C48.68 15.19 48.90 15.05 49.07 14.90C48.92 14.45 48.87 13.82 48.87 13.34ZM56.24 13.17C55.94 13.93 55.16 14.36 54.15 14.36C52.93 14.36 52.00 13.72 51.87 11.79C52.36 11.84 52.85 11.87 53.35 11.87C55.29 11.87 56.50 11.14 56.50 9.74C56.50 8.40 55.40 7.70 53.89 7.70C51.69 7.70 50.50 9.16 50.50 11.48C50.50 13.90 51.79 15.20 53.83 15.20C55.03 15.20 56 14.76 56.35 13.89C56.55 13.43 56.42 13.24 56.24 13.17ZM53.83 8.23C54.47 8.23 55.15 8.51 55.15 9.56C55.15 11.00 54.03 11.33 52.79 11.33C52.47 11.31 52.15 11.30 51.86 11.27C51.87 9.28 52.64 8.23 53.83 8.23ZM61.35 7.70C60.45 7.70 59.81 8.25 59.49 9.28C59.50 8.23 59.07 7.71 58.34 7.71C57.78 7.71 57.44 8.01 57.44 8.43C57.44 8.60 57.50 8.74 57.61 8.89C57.69 8.72 57.88 8.69 57.97 8.69C58.24 8.69 58.37 8.89 58.37 9.41L58.37 14.41C58.37 14.88 58.70 15.16 59.09 15.16C59.46 15.15 59.72 14.98 59.84 14.87C59.63 14.29 59.63 13.80 59.63 11.66C59.63 9.30 60.30 8.37 61.03 8.37C61.52 8.37 61.80 8.64 61.80 9.21C61.80 9.53 61.75 9.77 61.53 10.11C61.64 10.23 61.84 10.30 62.10 10.29C62.58 10.26 62.99 9.83 62.99 9.18C62.99 8.25 62.30 7.70 61.35 7.70ZM69.43 13.17C69.13 13.93 68.35 14.36 67.34 14.36C66.12 14.36 65.18 13.72 65.06 11.79C65.55 11.84 66.04 11.87 66.54 11.87C68.47 11.87 69.69 11.14 69.69 9.74C69.69 8.40 68.59 7.70 67.07 7.70C64.88 7.70 63.69 9.16 63.69 11.48C63.69 13.90 64.97 15.20 67.02 15.20C68.22 15.20 69.19 14.76 69.54 13.89C69.73 13.43 69.61 13.24 69.43 13.17ZM67.02 8.23C67.66 8.23 68.33 8.51 68.33 9.56C68.33 11.00 67.21 11.33 65.98 11.33C65.66 11.31 65.34 11.30 65.04 11.27C65.06 9.28 65.83 8.23 67.02 8.23Z"></path></g><!----><!----></svg>